#!OML:ASF F:\VICON\USERDATA\INSTALL\rory3\rory3.ASF
:FULLY-SPECIFIED
:DEGREES
2396
root 6.51055 18.832 -3.40875 -166.449 40.5006 183.253
lowerback 11.6333 -2.81532 -3.73787
upperback 6.75238 -3.47368 -3.79821
thorax 0.550551 -1.50197 -1.46792
lowerneck -7.88182 10.191 -6.00396
upperneck 29.1942 17.6171 0.963203
head 10.0409 8.05883 3.20144
rclavicle -2.8625e-014 3.97569e-014
rhumerus -5.55174 28.787 -85.7053
rradius 100.631
rwrist -29.7928
rhand -42.1423 6.62409
rfingers 7.12502
rthumb -15.0323 -22.8102
lclavicle -2.8625e-014 3.97569e-014
lhumerus -0.068857 8.15026 94.006
lradius 42.4584
lwrist 84.3183
lhand -26.966 48.5654
lfingers 7.12502
lthumb -0.387272 438.545
rfemur -25.4085 22.142 12.5962
rtibia 22.512
rfoot -9.80388 -8.75598
rtoes -7.96738
lfemur -18.9829 -1.3392 -7.48013
ltibia 25.3569
lfoot -13.6943 22.5727
ltoes -6.89438
2397
root 6.4785 18.8315 -3.43143 -166.704 41.0242 183.092
lowerback 11.3896 -2.5098 -3.87487
upperback 6.73152 -3.07243 -3.83852
thorax 0.666681 -1.30724 -1.48487
lowerneck -7.73307 10.1766 -5.96359
upperneck 29.1231 17.5924 0.915975
head 9.99683 8.05878 3.163
rclavicle -6.20208e-014 3.81667e-014
rhumerus -6.17806 29.4411 -86.3765
rradius 100.776
rwrist -29.7202
rhand -42.6977 6.17638
rfingers 7.12502
rthumb -15.5672 -23.2171
lclavicle -6.20208e-014 3.81667e-014
lhumerus -0.635881 8.14088 93.403
lradius 42.5979
lwrist 85.5021
lhand -29.1575 48.0509
lfingers 7.12502
lthumb -2.50387 438.016
rfemur -25.424 22.2789 12.3248
rtibia 22.623
rfoot -9.75931 -8.46636
rtoes -8.47823
lfemur -18.7068 -0.963442 -7.93674
ltibia 25.4533
lfoot -13.6049 22.7733
ltoes -8.02515
2398
root 6.44217 18.825 -3.45646 -166.905 41.4545 182.998
lowerback 11.1702 -2.24787 -3.95332
upperback 6.68015 -2.7326 -3.81023
thorax 0.73661 -1.14522 -1.4528
lowerneck -7.60397 10.1645 -5.96115
upperneck 29.1676 17.5972 0.905755
head 9.99122 8.06918 3.15352
rclavicle -2.38542e-015 2.70347e-014
rhumerus -6.88721 30.137 -86.9447
rradius 101.147
rwrist -29.7587
rhand -43.1471 5.67273
rfingers 7.12502
rthumb -16 -23.6865
lclavicle -2.38542e-015 2.70347e-014
lhumerus -1.27298 8.10593 92.8675
lradius 42.8292
lwrist 86.4405
lhand -28.7802 48.5435
lfingers 7.12502
lthumb -2.13938 438.513
rfemur -25.456 22.4259 12.0832
rtibia 22.8124
rfoot -9.80604 -8.26139
rtoes -8.71101
lfemur -18.4839 -0.786649 -8.31176
ltibia 25.5617
lfoot -13.6791 23.084
ltoes -8.91749
2399
root 6.40383 18.8152 -3.47694 -166.919 41.8597 183.116
lowerback 10.9648 -1.91726 -3.88176
upperback 6.54905 -2.30583 -3.72055
thorax 0.708656 -0.940519 -1.44517
lowerneck -7.32968 10.0753 -5.88488
upperneck 29.2959 17.5106 0.875282
head 10.0019 8.04957 3.11479
rclavicle -2.06736e-014 4.45278e-014
rhumerus -7.72088 30.6068 -87.4223
rradius 101.633
rwrist -29.8398
rhand -43.6748 5.33127
rfingers 7.12502
rthumb -16.5081 -23.9865
lclavicle -2.06736e-014 4.45278e-014
lhumerus -1.99941 7.53907 92.3022
lradius 43.1251
lwrist 87.3995
lhand -29.5696 48.6222
lfingers 7.12502
lthumb -2.90184 438.582
rfemur -25.6147 22.7327 11.9515
rtibia 23.0636
rfoot -9.87021 -8.18335
rtoes -8.74611
lfemur -18.3437 -0.441111 -8.48105
ltibia 25.6503
lfoot -13.706 23.1911
ltoes -9.41119
2400
root 6.36441 18.8071 -3.49439 -167.187 42.3024 182.904
lowerback 10.8405 -1.54537 -4.14097
upperback 6.4017 -1.85309 -3.65654
thorax 0.63318 -0.727707 -1.27907
lowerneck -7.1086 9.95219 -5.75591
upperneck 29.5391 17.4137 0.804982
head 10.0751 8.0218 3.06758
rclavicle 5.56597e-015 4.77083e-014
rhumerus -8.56367 30.8806 -87.9212
rradius 102.178
rwrist -29.5319
rhand -44.241 4.96765
rfingers 7.12502
rthumb -17.0532 -24.3039
lclavicle 5.56597e-015 4.77083e-014
lhumerus -2.6268 6.39691 91.5694
lradius 43.5019
lwrist 88.7359
lhand -30.5059 48.1183
lfingers 7.12502
lthumb -3.80599 438.064
rfemur -25.7379 22.8892 11.5945
rtibia 23.3149
rfoot -9.92209 -7.97341
rtoes -9.14131
lfemur -18.1892 -0.14654 -8.90625
ltibia 25.7545
lfoot -14.0034 23.2215
ltoes -8.94593
2401
root 6.32282 18.8035 -3.51729 -167.642 42.6297 182.455
lowerback 10.7579 -1.31203 -4.48143
upperback 6.3537 -1.57068 -3.69827
thorax 0.637662 -0.594207 -1.16111
lowerneck -7.28584 9.90276 -5.54625
upperneck 29.7686 17.4021 0.730394
head 10.2216 8.01862 3.04415
rclavicle -3.18055e-015 -2.22639e-014
rhumerus -9.11763 31.1883 -88.4555
rradius 102.789
rwrist -29.1837
rhand -44.455 4.87081
rfingers 7.12502
rthumb -17.2592 -24.3828
lclavicle -3.18055e-015 -2.22639e-014
lhumerus -3.33784 5.34275 90.9708
lradius 44.1093
lwrist 89.7033
lhand -32.081 45.8011
lfingers 7.12502
lthumb -5.32698 435.714
rfemur -25.76 22.7978 11.1025
rtibia 23.5435
rfoot -10.0671 -7.64283
rtoes -9.2746
lfemur -18.0333 -0.041987 -9.50593
ltibia 25.8713
lfoot -14.2746 23.2917
ltoes -8.76925
